<svg width="56" height="56" viewBox="0 0 56 56" fill="none" xmlns="http://www.w3.org/2000/svg">
<path d="M41.0319 28.0246C41.0303 28.7448 41.2424 29.4494 41.6414 30.049C42.0404 30.6487 42.6084 31.1165 43.2734 31.3932C43.9383 31.6699 44.6705 31.7432 45.3771 31.6036C46.0837 31.4641 46.733 31.118 47.2429 30.6093C47.7528 30.1005 48.1002 29.452 48.2413 28.7457C48.3824 28.0393 48.3108 27.3071 48.0356 26.6415C47.7603 25.9759 47.2937 25.4069 46.695 25.0066C46.0962 24.6063 45.3921 24.3926 44.6719 24.3926C43.7079 24.3926 42.7832 24.775 42.1008 25.4559C41.4184 26.1368 41.034 27.0606 41.0319 28.0246ZM46.7039 28.0246C46.7055 28.4287 46.587 28.8242 46.3634 29.1609C46.1399 29.4976 45.8213 29.7604 45.4483 29.9157C45.0752 30.0711 44.6643 30.1122 44.2679 30.0338C43.8714 29.9553 43.5072 29.7608 43.2214 29.4751C42.9356 29.1893 42.7412 28.8251 42.6627 28.4286C42.5842 28.0321 42.6253 27.6213 42.7807 27.2482C42.9361 26.8751 43.1988 26.5566 43.5355 26.333C43.8722 26.1095 44.2677 25.991 44.6719 25.9926C45.2108 25.9926 45.7276 26.2067 46.1087 26.5877C46.4898 26.9688 46.7039 27.4857 46.7039 28.0246ZM11.2959 24.3926C10.5779 24.3942 9.87646 24.6085 9.28023 25.0086C8.684 25.4086 8.21973 25.9764 7.94606 26.6402C7.67238 27.304 7.6016 28.034 7.74264 28.738C7.88369 29.442 8.23023 30.0885 8.73849 30.5956C9.24675 31.1027 9.89393 31.4479 10.5982 31.5874C11.3026 31.7269 12.0324 31.6545 12.6956 31.3793C13.3588 31.1042 13.9256 30.6387 14.3243 30.0416C14.7231 29.4445 14.9359 28.7426 14.9359 28.0246C14.9338 27.0606 14.5493 26.1368 13.8669 25.4559C13.1845 24.775 12.2599 24.3926 11.2959 24.3926ZM11.2959 30.0566C10.8943 30.055 10.5023 29.9345 10.1691 29.7102C9.83604 29.486 9.57684 29.1681 9.42427 28.7967C9.2717 28.4252 9.23259 28.0169 9.3119 27.6233C9.39121 27.2296 9.58536 26.8683 9.86986 26.5849C10.1544 26.3016 10.5164 26.1088 10.9104 26.0311C11.3043 25.9533 11.7125 25.994 12.0833 26.148C12.4542 26.3021 12.771 26.5625 12.994 26.8965C13.2169 27.2305 13.3359 27.623 13.3359 28.0246C13.3359 28.2921 13.2831 28.557 13.1804 28.804C13.0778 29.0511 12.9274 29.2755 12.7379 29.4643C12.5484 29.653 12.3234 29.8026 12.0759 29.9042C11.8285 30.0058 11.5634 30.0576 11.2959 30.0566Z" fill="#282828"/>
<path d="M53.1288 16.456H50.1288C49.5799 16.4581 49.0541 16.6771 48.666 17.0652C48.2779 17.4533 48.0589 17.9791 48.0568 18.528V20.456L47.3608 20.568L44.6088 13.6V13.528C44.0599 12.4652 43.2292 11.5739 42.2076 10.9517C41.186 10.3294 40.0129 10.0002 38.8168 10H17.2168C16.022 10.0021 14.8506 10.3312 13.8296 10.9517C12.8085 11.5722 11.9769 12.4604 11.4248 13.52V13.6L8.67278 20.56L7.94478 20.456V18.512C7.93848 17.9659 7.71766 17.4442 7.32999 17.0595C6.94232 16.6748 6.41891 16.4581 5.87278 16.456H2.87278C2.32665 16.4581 1.80324 16.6748 1.41557 17.0595C1.0279 17.4442 0.807079 17.9659 0.800781 18.512V19.856C0.802898 20.4041 1.02213 20.9291 1.41048 21.316C1.79882 21.7028 2.32464 21.92 2.87278 21.92H6.91278C5.75357 22.6911 4.8025 23.7363 4.14383 24.963C3.48517 26.1896 3.13927 27.5597 3.13678 28.952V36.72C3.13057 37.2019 3.25063 37.6769 3.48502 38.098C3.7194 38.5191 4.05995 38.8714 4.47278 39.12V43.304C4.4749 43.8521 4.69413 44.3771 5.08248 44.764C5.47082 45.1508 5.99664 45.368 6.54478 45.368H11.2008C11.7489 45.368 12.2747 45.1508 12.6631 44.764C13.0514 44.3771 13.2707 43.8521 13.2728 43.304V39.48H42.6888V43.264C42.6898 43.5388 42.7455 43.8107 42.8526 44.0638C42.9597 44.3169 43.116 44.5462 43.3126 44.7383C43.5091 44.9303 43.7419 45.0814 43.9974 45.1827C44.2529 45.2839 44.526 45.3333 44.8008 45.328H49.4568C50.0049 45.328 50.5307 45.1108 50.9191 44.724C51.3074 44.3371 51.5267 43.8121 51.5288 43.264V39.08C51.9437 38.833 52.2862 38.4812 52.5221 38.06C52.7581 37.6387 52.879 37.1628 52.8728 36.68V28.952C52.8701 27.5589 52.5233 26.188 51.8631 24.9612C51.203 23.7344 50.25 22.6897 49.0888 21.92H53.1688C53.71 21.9096 54.2256 21.6877 54.6053 21.302C54.9851 20.9163 55.1988 20.3973 55.2008 19.856V18.512C55.1945 17.9659 54.9737 17.4442 54.586 17.0595C54.1983 16.6748 53.6749 16.4581 53.1288 16.456ZM12.8008 14.216C13.219 13.4236 13.845 12.76 14.6117 12.2963C15.3784 11.8327 16.2568 11.5864 17.1528 11.584H38.7528C39.6489 11.5855 40.5277 11.8314 41.2946 12.2952C42.0614 12.759 42.6873 13.423 43.1048 14.216L45.6328 20.616L45.2648 20.576C45.1955 20.5721 45.1261 20.5721 45.0568 20.576C44.8249 20.564 44.5926 20.564 44.3608 20.576H11.5608C11.3316 20.564 11.102 20.564 10.8728 20.576C10.7955 20.5721 10.7181 20.5721 10.6408 20.576L10.2968 20.616L12.8008 14.216ZM6.34478 20.32H2.87278C2.81118 20.3211 2.74998 20.3098 2.69276 20.287C2.63554 20.2642 2.58344 20.2302 2.5395 20.187C2.49556 20.1438 2.46067 20.0923 2.43685 20.0354C2.41303 19.9786 2.40077 19.9176 2.40078 19.856V18.512C2.40493 18.3896 2.45649 18.2736 2.54456 18.1885C2.63263 18.1035 2.75032 18.0559 2.87278 18.056H5.87278C5.99796 18.056 6.11802 18.1057 6.20654 18.1942C6.29505 18.2828 6.34478 18.4028 6.34478 18.528V20.32ZM11.6728 43.264C11.6728 43.3256 11.6605 43.3866 11.6367 43.4434C11.6129 43.5003 11.578 43.5518 11.5341 43.595C11.4901 43.6382 11.438 43.6722 11.3808 43.695C11.3236 43.7178 11.2624 43.7291 11.2008 43.728H6.54478C6.42097 43.728 6.30211 43.6794 6.21382 43.5926C6.12553 43.5058 6.07488 43.3878 6.07278 43.264V39.48H11.6728V43.264ZM49.8888 43.264C49.8899 43.3259 49.8784 43.3874 49.855 43.4448C49.8316 43.5021 49.7967 43.5541 49.7525 43.5975C49.7084 43.6409 49.6558 43.6749 49.5981 43.6973C49.5404 43.7197 49.4787 43.7302 49.4168 43.728H44.8008C44.677 43.728 44.5581 43.6794 44.4698 43.5926C44.3815 43.5058 44.3309 43.3878 44.3288 43.264V39.48H49.9288L49.8888 43.264ZM51.2008 28.952V36.72C51.203 36.8736 51.1742 37.0261 51.1162 37.1683C51.0581 37.3106 50.972 37.4397 50.863 37.548C50.754 37.6562 50.6243 37.7414 50.4817 37.7985C50.3391 37.8555 50.1864 37.8832 50.0328 37.88H5.89678C5.77188 37.8815 5.64757 37.8626 5.52878 37.824C5.29596 37.748 5.09318 37.6003 4.94947 37.4019C4.80576 37.2036 4.72851 36.9649 4.72878 36.72V28.952C4.73586 27.5507 5.17319 26.1853 5.9816 25.0407C6.79001 23.896 7.9305 23.0273 9.24878 22.552C9.97836 22.2933 10.7467 22.1607 11.5208 22.16H44.9208C45.4918 22.2093 46.0539 22.333 46.5928 22.528H46.6408C47.9704 22.9981 49.1222 23.8676 49.9385 25.0176C50.7548 26.1676 51.1957 27.5418 51.2008 28.952ZM53.6008 19.856C53.6008 19.9176 53.5885 19.9786 53.5647 20.0354C53.5409 20.0923 53.506 20.1438 53.4621 20.187C53.4181 20.2302 53.366 20.2642 53.3088 20.287C53.2516 20.3098 53.1904 20.3211 53.1288 20.32H49.6568V18.512C49.6568 18.3868 49.7065 18.2668 49.795 18.1782C49.8835 18.0897 50.0036 18.04 50.1288 18.04H53.1288C53.254 18.04 53.374 18.0897 53.4625 18.1782C53.5511 18.2668 53.6008 18.3868 53.6008 18.512V19.856Z" fill="#282828"/>
<path d="M17.8726 31.3924H38.1286C38.5021 31.3924 38.8602 31.2441 39.1242 30.98C39.3883 30.716 39.5366 30.3579 39.5366 29.9844C39.5366 28.8345 39.0798 27.7316 38.2666 26.9184C37.4535 26.1053 36.3506 25.6484 35.2006 25.6484H20.8006C19.652 25.6506 18.5512 26.1083 17.7398 26.9212C16.9284 27.7342 16.4726 28.8358 16.4726 29.9844C16.4716 30.169 16.507 30.3519 16.5769 30.5227C16.6468 30.6934 16.7497 30.8487 16.8798 30.9796C17.0099 31.1104 17.1646 31.2143 17.335 31.2851C17.5054 31.356 17.6881 31.3924 17.8726 31.3924ZM20.8006 27.2484H35.2006C35.8923 27.2506 36.5575 27.5139 37.0634 27.9856C37.5692 28.4573 37.8782 29.1026 37.9286 29.7924H18.0726C18.123 29.1026 18.4321 28.4573 18.9379 27.9856C19.4437 27.5139 20.109 27.2506 20.8006 27.2484ZM39.5606 34.0564H16.4406C16.2285 34.0564 16.025 34.1407 15.8749 34.2908C15.7249 34.4408 15.6406 34.6443 15.6406 34.8564C15.6406 35.0686 15.7249 35.2721 15.8749 35.4221C16.025 35.5722 16.2285 35.6564 16.4406 35.6564H39.5606C39.7728 35.6564 39.9763 35.5722 40.1263 35.4221C40.2763 35.2721 40.3606 35.0686 40.3606 34.8564C40.3606 34.6443 40.2763 34.4408 40.1263 34.2908C39.9763 34.1407 39.7728 34.0564 39.5606 34.0564Z" fill="#282828"/>
<path d="M41 27.5C47.9036 27.5 53.5 21.9036 53.5 15C53.5 8.09644 47.9036 2.5 41 2.5C34.0964 2.5 28.5 8.09644 28.5 15C28.5 21.9036 34.0964 27.5 41 27.5Z" fill="white" stroke="#919118" stroke-width="1.5" stroke-linecap="round" stroke-linejoin="round"/>
<path d="M46 12.5L41 17.5L36 12.5" fill="white"/>
<path d="M46 12.5L41 17.5L36 12.5" stroke="#919118" stroke-width="1.5" stroke-linecap="round" stroke-linejoin="round"/>
</svg>
