<svg width="56" height="56" viewBox="0 0 56 56" fill="none" xmlns="http://www.w3.org/2000/svg">
<path d="M12.7284 29.6417L6.60338 25.6378C6.47527 25.5536 6.32731 25.5046 6.1743 25.4956C6.0213 25.4867 5.86863 25.518 5.73156 25.5866C5.5945 25.6552 5.47785 25.7586 5.39329 25.8864C5.30873 26.0142 5.25924 26.162 5.24975 26.315L5.00563 30.2114C4.99566 30.37 5.02909 30.5283 5.10231 30.6694C5.17554 30.8104 5.2858 30.9289 5.42125 31.012L8.92125 33.1593C9.06726 33.2486 9.23628 33.2931 9.40736 33.2874C9.57844 33.2816 9.74407 33.2258 9.88375 33.1269L12.7529 31.0872C12.869 31.0047 12.9632 30.895 13.0274 30.7678C13.0915 30.6405 13.1236 30.4996 13.1208 30.3571C13.118 30.2146 13.0805 30.075 13.0115 29.9503C12.9425 29.8257 12.8441 29.7197 12.7249 29.6417H12.7284ZM9.34475 31.3646L6.78625 29.7958L6.90438 27.9241L10.6966 30.403L9.34475 31.3646ZM42.8748 30.3566C42.872 30.4992 42.9041 30.6403 42.9683 30.7676C43.0325 30.895 43.1268 31.0047 43.2431 31.0872L46.1123 33.1269C46.2519 33.2258 46.4176 33.2816 46.5886 33.2874C46.7597 33.2931 46.9287 33.2486 47.0748 33.1593L50.5748 31.012C50.7102 30.9289 50.8205 30.8104 50.8937 30.6694C50.9669 30.5283 51.0003 30.37 50.9904 30.2114L50.7498 26.315C50.7401 26.1623 50.6906 26.0148 50.6061 25.8872C50.5216 25.7597 50.4052 25.6565 50.2684 25.5879C50.1316 25.5194 49.9793 25.4879 49.8265 25.4967C49.6737 25.5054 49.526 25.5541 49.3979 25.6378L43.2729 29.6417C43.1533 29.7194 43.0545 29.8252 42.9851 29.9498C42.9157 30.0744 42.8778 30.214 42.8748 30.3566ZM49.0951 27.9241L49.2133 29.7949L46.6548 31.3646L45.3029 30.4021L49.0951 27.9241Z" fill="#282828"/>
<path d="M53.3748 21.625C53.4899 21.625 53.6039 21.6022 53.7102 21.5581C53.8165 21.514 53.9131 21.4493 53.9943 21.3678L54.8693 20.4928C54.9988 20.3628 55.0841 20.1956 55.1133 20.0145C55.1425 19.8335 55.1141 19.6479 55.0321 19.4839L54.1571 17.7339C54.0845 17.5886 53.9728 17.4663 53.8347 17.3809C53.6965 17.2954 53.5373 17.2501 53.3748 17.25H49.8748C49.6428 17.25 49.4203 17.3423 49.2562 17.5064L48.3812 18.3814C48.2513 18.5111 48.1655 18.6785 48.136 18.8597C48.1065 19.0409 48.1347 19.2268 48.2167 19.3911L48.8966 20.75L48.5623 21.4185L47.3137 18.9212C46.4265 17.1463 45.0905 15.6344 43.4383 14.5355C41.7861 13.4366 39.8751 12.7891 37.8952 12.6571L28.0576 12H27.9421L18.1045 12.6554C15.7845 12.8073 13.5673 13.669 11.7537 15.1237C10.4705 16.1548 9.42426 17.45 8.68597 18.9212L7.43734 21.4185L7.10309 20.75L7.78734 19.3911C7.86933 19.2268 7.89756 19.0409 7.86804 18.8597C7.83852 18.6785 7.75274 18.5111 7.62284 18.3814L6.74784 17.5064C6.66609 17.4246 6.56894 17.3598 6.462 17.3158C6.35507 17.2718 6.24047 17.2494 6.12484 17.25H2.62484C2.46239 17.2501 2.30316 17.2954 2.16501 17.3809C2.02685 17.4663 1.91521 17.5886 1.84259 17.7339L0.967591 19.4839C0.886802 19.6473 0.859059 19.8318 0.888237 20.0118C0.917414 20.1917 1.00206 20.358 1.13034 20.4875L2.00534 21.3625C2.08617 21.445 2.18253 21.5106 2.28885 21.5557C2.39518 21.6007 2.50937 21.6243 2.62484 21.625H5.58409L6.00059 22.4589L3.98372 23.4625C3.84784 23.5312 3.73186 23.6337 3.64684 23.76L1.89684 26.385C1.80041 26.5302 1.74925 26.7007 1.74984 26.875V38.0277C1.75106 38.3992 1.82948 38.7663 1.98011 39.1058C2.13073 39.4453 2.35029 39.7498 2.62484 40V41.6966C2.61854 42.3997 2.89138 43.0765 3.3835 43.5786C3.87561 44.0807 4.54682 44.3671 5.24984 44.375H8.74984C9.33657 44.3703 9.90491 44.1697 10.3646 43.8051C10.8244 43.4405 11.1491 42.9327 11.2873 42.3625L13.9123 42.625C13.9421 42.625 13.971 42.6294 13.9998 42.6294C14.1184 42.6295 14.2357 42.6054 14.3446 42.5585L17.1892 41.3396L17.5917 42.1455C17.665 42.2901 17.777 42.4116 17.9153 42.4962C18.0536 42.5809 18.2127 42.6255 18.3748 42.625H37.6248C37.7882 42.6259 37.9485 42.581 38.0877 42.4955C38.2269 42.41 38.3393 42.2872 38.4123 42.1411L38.8148 41.3353L41.6595 42.5541C41.767 42.6004 41.8828 42.6245 41.9998 42.625C42.0287 42.625 42.0576 42.625 42.0873 42.6206L44.7001 42.3581C44.8305 42.9351 45.1547 43.45 45.6186 43.817C46.0826 44.184 46.6583 44.381 47.2498 44.375H50.7498C51.4529 44.3671 52.1241 44.0807 52.6162 43.5786C53.1083 43.0765 53.3811 42.3997 53.3748 41.6966V40C53.6495 39.7499 53.8692 39.4455 54.0198 39.1059C54.1704 38.7664 54.2488 38.3992 54.2498 38.0277V26.875C54.2496 26.7022 54.1984 26.5333 54.1028 26.3894L52.3528 23.7644C52.2678 23.638 52.1518 23.5356 52.016 23.4669L50.0035 22.4589L50.4156 21.625H53.3748ZM12.8483 16.4923C14.3823 15.261 16.2581 14.5318 18.2208 14.4036L27.9998 13.75L37.7788 14.4019C39.454 14.5141 41.0708 15.0622 42.4687 15.9921C43.8667 16.9219 44.9973 18.201 45.7483 19.7026L46.7082 21.625H9.29059L10.2531 19.7C10.8742 18.4545 11.76 17.3597 12.8483 16.4923ZM46.0117 23.375L40.6663 28.7213L34.8773 30.375H31.7063L30.141 29.5875C30.0191 29.5285 29.8852 29.4985 29.7498 29.5H26.2498C26.1145 29.4985 25.9806 29.5285 25.8587 29.5875L24.2933 30.375H21.1223L15.3473 28.7239L10.2758 23.375H46.0117ZM5.58672 19.875H2.98797L2.81297 19.7L3.16297 19H5.76259L5.93759 19.175L5.58672 19.875ZM4.54984 37.725C4.43625 37.8765 4.37484 38.0607 4.37484 38.25V39.1329L3.89884 38.8065C3.77421 38.7187 3.67278 38.602 3.60328 38.4663C3.53377 38.3307 3.49827 38.1802 3.49984 38.0277V32.4873L6.34359 35.331L4.54984 37.725ZM8.74984 42.625H5.24984C5.01086 42.6175 4.7846 42.5155 4.62061 42.3415C4.45661 42.1675 4.36824 41.9356 4.37484 41.6966V41.2591L4.54984 41.3773C4.61899 41.4799 4.70953 41.5664 4.81526 41.6307C4.92099 41.6951 5.03939 41.7358 5.16234 41.75L9.47959 42.1822C9.40755 42.3136 9.30217 42.4237 9.17407 42.5014C9.04596 42.5792 8.89965 42.6218 8.74984 42.625ZM36.2196 38.3209L35.5301 39.9291L37.1996 40.6449L37.0841 40.875H18.9156L18.8001 40.6449L20.4696 39.9291L19.7801 38.3209L13.8625 40.8584L6.12484 40.0875V38.5414L8.16884 35.8149L18.2418 37.3645C18.2858 37.3715 18.3303 37.375 18.3748 37.375H37.6248C37.6691 37.375 37.7133 37.3715 37.757 37.3645L47.83 35.8157L49.8748 38.5414V40.0875L42.1372 40.861L36.2196 38.3209ZM51.4498 37.725L49.6552 35.3319L52.4998 32.4873V38.0277C52.5014 38.1803 52.4658 38.3309 52.3961 38.4665C52.3265 38.6022 52.2248 38.7189 52.1 38.8065L51.6248 39.1329V38.25C51.6248 38.0607 51.5634 37.8765 51.4498 37.725ZM50.7498 42.625H47.2498C47.0996 42.6214 46.953 42.5781 46.8248 42.4996C46.6967 42.421 46.5916 42.3101 46.5201 42.1779L50.8373 41.75C50.9602 41.7359 51.0786 41.6954 51.1843 41.6312C51.2901 41.567 51.3806 41.4807 51.4498 41.3781L51.6248 41.26V41.6975C51.6312 41.9364 51.5427 42.168 51.3788 42.3418C51.2148 42.5156 50.9887 42.6175 50.7498 42.625ZM52.4998 27.1375V30.0101L48.5833 33.9266L37.5575 35.625H18.4422L7.41722 33.9293L3.49984 30.0127V27.1375L4.97422 24.9255L7.93434 23.4459L14.2396 30.0959C14.3477 30.2092 14.4839 30.2919 14.6342 30.3356L20.7592 32.0856C20.8372 32.1097 20.9182 32.1229 20.9998 32.125H24.4998C24.6352 32.1265 24.7691 32.0965 24.891 32.0375L26.4563 31.25H29.5433L31.1087 32.0375C31.2306 32.0965 31.3644 32.1265 31.4998 32.125H34.9998C35.0812 32.1249 35.1621 32.1137 35.2405 32.0918L41.3655 30.3418C41.5083 30.3005 41.6383 30.2237 41.7435 30.1186L48.2998 23.564L51.029 24.9281L52.4998 27.1375ZM50.2371 19H52.8341L53.1841 19.7L53.0091 19.875H50.4156L50.0656 19.175L50.2371 19Z" fill="#282828"/>
</svg>
