<svg width="56" height="56" viewBox="0 0 56 56" fill="none" xmlns="http://www.w3.org/2000/svg">
<path d="M33 27.5C39.9036 27.5 45.5 21.9036 45.5 15C45.5 8.09644 39.9036 2.5 33 2.5C26.0964 2.5 20.5 8.09644 20.5 15C20.5 21.9036 26.0964 27.5 33 27.5Z" fill="white" stroke="#919118" stroke-width="1.5" stroke-linecap="round" stroke-linejoin="round"/>
<path d="M33.0778 18.9176C32.9724 18.8979 32.8636 18.8947 32.7568 18.9082C31.6843 18.8016 30.8753 18.0266 30.8734 17.1047C30.8734 16.8925 30.7748 16.689 30.5991 16.539C30.4235 16.389 30.1852 16.3047 29.9368 16.3047C29.6884 16.3047 29.4502 16.389 29.2745 16.539C29.0988 16.689 29.0002 16.8925 29.0002 17.1047C29.003 18.6441 30.2084 19.9926 31.9464 20.4V21.2C31.9464 21.4122 32.045 21.6157 32.2207 21.7657C32.3964 21.9157 32.6346 22 32.883 22C33.1314 22 33.3697 21.9157 33.5453 21.7657C33.721 21.6157 33.8196 21.4122 33.8196 21.2V20.4484C35.8256 20.0898 37.1888 18.4941 36.9781 16.7531C36.7668 15.0121 35.0494 13.6891 33.0001 13.6887C31.8257 13.6887 30.8734 12.8754 30.8734 11.8723C30.8734 10.8692 31.8257 10.0559 33.0001 10.0559C34.1745 10.0559 35.1267 10.8691 35.1267 11.8723C35.1267 12.0845 35.2254 12.288 35.4011 12.438C35.5767 12.588 35.8149 12.6723 36.0634 12.6723C36.3118 12.6723 36.55 12.588 36.7257 12.438C36.9013 12.288 37 12.0845 37 11.8723C36.9973 10.2559 35.6715 8.8617 33.8196 8.5281V7.8C33.8196 7.58783 33.721 7.38434 33.5453 7.23431C33.3697 7.08428 33.1314 7 32.883 7C32.6346 7 32.3964 7.08428 32.2207 7.23431C32.045 7.38434 31.9464 7.58783 31.9464 7.8V8.577C30.0136 9.0277 28.7696 10.6305 29.0358 12.3266C29.3019 14.0227 30.9965 15.2886 33.0001 15.2883C34.1591 15.2883 35.1044 16.0809 35.1253 17.0703C35.1469 18.0598 34.2359 18.8816 33.0778 18.9176Z" fill="#919118"/>
<path d="M46.6844 30.3281L39.6117 33.9921C39.094 33.0944 38.3507 32.3503 37.4566 31.8347C36.5626 31.3192 35.5495 31.0505 34.5195 31.0557L27.8799 31.0946C26.8283 31.0996 25.789 30.866 24.8391 30.4111L24.1525 30.0812C22.4201 29.2436 20.5125 28.8409 18.5922 28.9074C16.672 28.9739 14.7963 29.5077 13.125 30.4631L13.1161 28.9201C13.1155 28.7986 13.0911 28.6784 13.0443 28.5664C12.9975 28.4544 12.9294 28.3527 12.8436 28.2673C12.7579 28.1819 12.6563 28.1143 12.5447 28.0684C12.4331 28.0226 12.3136 27.9993 12.193 28L4.91228 28.0425C4.79175 28.0432 4.67253 28.0678 4.56145 28.115C4.45036 28.1621 4.34958 28.2309 4.26486 28.3173C4.18014 28.4038 4.11314 28.5062 4.0677 28.6187C4.02226 28.7313 3.99926 28.8517 4.00002 28.9733L4.09226 45.0797C4.09291 45.2013 4.11731 45.3215 4.16407 45.4335C4.21083 45.5456 4.27902 45.6472 4.36476 45.7327C4.4505 45.8182 4.5521 45.8857 4.66375 45.9316C4.77541 45.9775 4.89494 46.0007 5.01551 46L12.2961 45.9576L12.3212 45.9567C12.5603 45.9488 12.7868 45.8471 12.9525 45.6734C13.1183 45.4996 13.2103 45.2675 13.2088 45.0264L13.2044 44.2558L15.0603 43.1724C15.7885 42.7451 16.653 42.6203 17.4708 42.8242L28.8609 45.6382C28.8808 45.6434 28.9005 45.6473 28.921 45.6512C29.7423 45.7957 30.5762 45.8542 31.4095 45.8257C33.1743 45.7675 34.9058 45.3253 36.4852 44.5293C36.524 44.5098 36.5614 44.4874 36.5968 44.4622L52.606 33.2439C52.7981 33.1092 52.932 32.9057 52.9802 32.6749C53.0285 32.444 52.9876 32.2034 52.8657 32.002C51.5793 29.8699 48.8577 29.1327 46.6844 30.3281ZM5.92269 44.1441L5.84083 29.8877L11.2857 29.8559L11.3676 44.1128L5.92269 44.1441ZM35.6042 42.9052C33.6414 43.8787 31.4242 44.2039 29.2676 43.8345L17.9083 41.0277C16.63 40.7093 15.2791 40.9043 14.1408 41.5713L13.1923 42.1253L13.1379 32.6465C14.607 31.5887 16.3307 30.9477 18.1293 30.7903C19.9279 30.6329 21.7354 30.9649 23.3633 31.7517L24.05 32.0816C25.2499 32.656 26.5625 32.9512 27.8908 32.9455L34.5308 32.9065C36.3959 32.898 38.0226 34.1823 38.4614 36.0101L28.5711 36.0669C28.064 36.0701 27.6558 36.4869 27.6583 36.9976C27.6598 37.2431 27.7578 37.4779 27.931 37.6504C28.1041 37.823 28.3381 37.9191 28.5816 37.9178L39.4962 37.8541L39.5218 37.8533C39.7607 37.8451 39.9869 37.7433 40.1525 37.5696C40.3181 37.3959 40.4099 37.1639 40.4085 36.923C40.4065 36.5207 40.3635 36.1197 40.2802 35.7263L47.5345 31.968C47.5416 31.9647 47.5486 31.9608 47.5557 31.9569C48.0576 31.6794 48.6316 31.5633 49.2008 31.6243C49.77 31.6853 50.307 31.9204 50.7398 32.2981L35.6042 42.9052Z" fill="#282828"/>
</svg>
