<svg width="56" height="56" viewBox="0 0 56 56" fill="none" xmlns="http://www.w3.org/2000/svg">
<path d="M41.0319 28.3683C41.0303 29.0886 41.2424 29.7931 41.6414 30.3928C42.0404 30.9924 42.6084 31.4602 43.2734 31.7369C43.9383 32.0137 44.6705 32.0869 45.3771 31.9474C46.0837 31.8078 46.733 31.4618 47.2429 30.953C47.7528 30.4443 48.1002 29.7957 48.2413 29.0894C48.3824 28.3831 48.3108 27.6508 48.0356 26.9852C47.7603 26.3196 47.2937 25.7507 46.695 25.3503C46.0962 24.95 45.3921 24.7363 44.6719 24.7363C43.7079 24.7363 42.7832 25.1187 42.1008 25.7996C41.4184 26.4805 41.034 27.4043 41.0319 28.3683ZM46.7039 28.3683C46.7055 28.7725 46.587 29.168 46.3634 29.5047C46.1399 29.8414 45.8213 30.1041 45.4483 30.2595C45.0752 30.4149 44.6643 30.456 44.2679 30.3775C43.8714 30.299 43.5072 30.1046 43.2214 29.8188C42.9356 29.533 42.7412 29.1688 42.6627 28.7723C42.5842 28.3759 42.6253 27.965 42.7807 27.592C42.9361 27.2189 43.1988 26.9003 43.5355 26.6768C43.8722 26.4532 44.2677 26.3347 44.6719 26.3363C45.2108 26.3363 45.7276 26.5504 46.1087 26.9315C46.4898 27.3126 46.7039 27.8294 46.7039 28.3683ZM11.2959 24.7363C10.5779 24.7379 9.87646 24.9523 9.28023 25.3523C8.684 25.7524 8.21973 26.3202 7.94606 26.984C7.67238 27.6478 7.6016 28.3778 7.74264 29.0818C7.88369 29.7858 8.23023 30.4322 8.73849 30.9394C9.24675 31.4465 9.89393 31.7916 10.5982 31.9311C11.3026 32.0706 12.0324 31.9982 12.6956 31.7231C13.3588 31.448 13.9256 30.9824 14.3243 30.3853C14.7231 29.7882 14.9359 29.0863 14.9359 28.3683C14.9338 27.4043 14.5493 26.4805 13.8669 25.7996C13.1845 25.1187 12.2599 24.7363 11.2959 24.7363ZM11.2959 30.4003C10.8943 30.3987 10.5023 30.2782 10.1691 30.054C9.83604 29.8298 9.57684 29.5118 9.42427 29.1404C9.2717 28.769 9.23259 28.3607 9.3119 27.967C9.39121 27.5734 9.58536 27.2121 9.86986 26.9287C10.1544 26.6453 10.5164 26.4526 10.9104 26.3748C11.3043 26.297 11.7125 26.3378 12.0833 26.4918C12.4542 26.6458 12.771 26.9063 12.994 27.2402C13.2169 27.5742 13.3359 27.9668 13.3359 28.3683C13.3359 28.6358 13.2831 28.9007 13.1804 29.1478C13.0778 29.3948 12.9274 29.6192 12.7379 29.808C12.5484 29.9968 12.3234 30.1463 12.0759 30.248C11.8285 30.3496 11.5634 30.4014 11.2959 30.4003Z" fill="#282828"/>
<path d="M53.1288 16.7997H50.1288C49.5799 16.8019 49.0541 17.0208 48.666 17.409C48.2779 17.7971 48.0589 18.3229 48.0568 18.8717V20.7998L47.3608 20.9117L44.6088 13.9438V13.8717C44.0599 12.809 43.2292 11.9177 42.2076 11.2954C41.186 10.6732 40.0129 10.3439 38.8168 10.3438H17.2168C16.022 10.3458 14.8506 10.675 13.8296 11.2955C12.8085 11.916 11.9769 12.8042 11.4248 13.8637V13.9438L8.67278 20.9037L7.94478 20.7998V18.8558C7.93848 18.3097 7.71766 17.7879 7.32999 17.4033C6.94232 17.0186 6.41891 16.8018 5.87278 16.7997H2.87278C2.32665 16.8018 1.80324 17.0186 1.41557 17.4033C1.0279 17.7879 0.807079 18.3097 0.800781 18.8558V20.1997C0.802898 20.7479 1.02213 21.2729 1.41048 21.6597C1.79882 22.0466 2.32464 22.2638 2.87278 22.2638H6.91278C5.75357 23.0349 4.8025 24.0801 4.14383 25.3067C3.48517 26.5333 3.13927 27.9035 3.13678 29.2957V37.0638C3.13057 37.5456 3.25063 38.0207 3.48502 38.4418C3.7194 38.8628 4.05995 39.2152 4.47278 39.4638V43.6478C4.4749 44.1959 4.69413 44.7209 5.08248 45.1077C5.47082 45.4946 5.99664 45.7118 6.54478 45.7118H11.2008C11.7489 45.7118 12.2747 45.4946 12.6631 45.1077C13.0514 44.7209 13.2707 44.1959 13.2728 43.6478V39.8237H42.6888V43.6077C42.6898 43.8826 42.7455 44.1544 42.8526 44.4076C42.9597 44.6607 43.116 44.8899 43.3126 45.082C43.5091 45.2741 43.7419 45.4252 43.9974 45.5264C44.2529 45.6276 44.526 45.6771 44.8008 45.6717H49.4568C50.0049 45.6718 50.5307 45.4546 50.9191 45.0677C51.3074 44.6809 51.5267 44.1559 51.5288 43.6077V39.4237C51.9437 39.1768 52.2862 38.825 52.5221 38.4037C52.7581 37.9824 52.879 37.5065 52.8728 37.0237V29.2957C52.8701 27.9026 52.5233 26.5317 51.8631 25.3049C51.203 24.0781 50.25 23.0335 49.0888 22.2638H53.1688C53.71 22.2533 54.2256 22.0315 54.6053 21.6458C54.9851 21.26 55.1988 20.741 55.2008 20.1997V18.8558C55.1945 18.3097 54.9737 17.7879 54.586 17.4033C54.1983 17.0186 53.6749 16.8018 53.1288 16.7997ZM12.8008 14.5598C13.219 13.7674 13.845 13.1038 14.6117 12.6401C15.3784 12.1764 16.2568 11.9302 17.1528 11.9277H38.7528C39.6489 11.9293 40.5277 12.1752 41.2946 12.6389C42.0614 13.1027 42.6873 13.7668 43.1048 14.5598L45.6328 20.9598L45.2648 20.9197C45.1955 20.9158 45.1261 20.9158 45.0568 20.9197C44.8249 20.9078 44.5926 20.9078 44.3608 20.9197H11.5608C11.3316 20.9078 11.102 20.9078 10.8728 20.9197C10.7955 20.9158 10.7181 20.9158 10.6408 20.9197L10.2968 20.9598L12.8008 14.5598ZM6.34478 20.6637H2.87278C2.81118 20.6648 2.74998 20.6536 2.69276 20.6308C2.63554 20.6079 2.58344 20.5739 2.5395 20.5307C2.49556 20.4875 2.46067 20.436 2.43685 20.3792C2.41303 20.3224 2.40077 20.2614 2.40078 20.1997V18.8558C2.40493 18.7334 2.45649 18.6174 2.54456 18.5323C2.63263 18.4472 2.75032 18.3997 2.87278 18.3997H5.87278C5.99796 18.3997 6.11802 18.4495 6.20654 18.538C6.29505 18.6265 6.34478 18.7466 6.34478 18.8717V20.6637ZM11.6728 43.6077C11.6728 43.6694 11.6605 43.7304 11.6367 43.7872C11.6129 43.844 11.578 43.8955 11.5341 43.9387C11.4901 43.9819 11.438 44.0159 11.3808 44.0388C11.3236 44.0616 11.2624 44.0728 11.2008 44.0718H6.54478C6.42097 44.0718 6.30211 44.0231 6.21382 43.9363C6.12553 43.8495 6.07488 43.7315 6.07278 43.6077V39.8237H11.6728V43.6077ZM49.8888 43.6077C49.8899 43.6697 49.8784 43.7312 49.855 43.7885C49.8316 43.8458 49.7967 43.8978 49.7525 43.9412C49.7084 43.9846 49.6558 44.0186 49.5981 44.041C49.5404 44.0635 49.4787 44.0739 49.4168 44.0718H44.8008C44.677 44.0718 44.5581 44.0231 44.4698 43.9363C44.3815 43.8495 44.3309 43.7315 44.3288 43.6077V39.8237H49.9288L49.8888 43.6077ZM51.2008 29.2957V37.0638C51.203 37.2174 51.1742 37.3698 51.1162 37.5121C51.0581 37.6543 50.972 37.7834 50.863 37.8917C50.754 38 50.6243 38.0852 50.4817 38.1422C50.3391 38.1993 50.1864 38.227 50.0328 38.2237H5.89678C5.77188 38.2253 5.64757 38.2064 5.52878 38.1677C5.29596 38.0917 5.09318 37.944 4.94947 37.7457C4.80576 37.5474 4.72851 37.3087 4.72878 37.0638V29.2957C4.73586 27.8944 5.17319 26.5291 5.9816 25.3844C6.79001 24.2398 7.9305 23.371 9.24878 22.8958C9.97836 22.637 10.7467 22.5045 11.5208 22.5037H44.9208C45.4918 22.553 46.0539 22.6767 46.5928 22.8717H46.6408C47.9704 23.3418 49.1222 24.2114 49.9385 25.3614C50.7548 26.5113 51.1957 27.8855 51.2008 29.2957ZM53.6008 20.1997C53.6008 20.2614 53.5885 20.3224 53.5647 20.3792C53.5409 20.436 53.506 20.4875 53.4621 20.5307C53.4181 20.5739 53.366 20.6079 53.3088 20.6308C53.2516 20.6536 53.1904 20.6648 53.1288 20.6637H49.6568V18.8558C49.6568 18.7306 49.7065 18.6105 49.795 18.522C49.8835 18.4335 50.0036 18.3837 50.1288 18.3837H53.1288C53.254 18.3837 53.374 18.4335 53.4625 18.522C53.5511 18.6105 53.6008 18.7306 53.6008 18.8558V20.1997Z" fill="#282828"/>
<path d="M17.8726 31.7362H38.1286C38.5021 31.7362 38.8602 31.5878 39.1242 31.3238C39.3883 31.0597 39.5366 30.7016 39.5366 30.3282C39.5366 29.1782 39.0798 28.0753 38.2666 27.2622C37.4535 26.449 36.3506 25.9922 35.2006 25.9922H20.8006C19.652 25.9943 18.5512 26.4521 17.7398 27.265C16.9284 28.0779 16.4726 29.1796 16.4726 30.3282C16.4716 30.5127 16.507 30.6956 16.5769 30.8664C16.6468 31.0372 16.7497 31.1925 16.8798 31.3233C17.0099 31.4542 17.1646 31.558 17.335 31.6289C17.5054 31.6997 17.6881 31.7362 17.8726 31.7362ZM20.8006 27.5922H35.2006C35.8923 27.5944 36.5575 27.8577 37.0634 28.3294C37.5692 28.8011 37.8782 29.4464 37.9286 30.1362H18.0726C18.123 29.4464 18.4321 28.8011 18.9379 28.3294C19.4437 27.8577 20.109 27.5944 20.8006 27.5922ZM39.5606 34.4002H16.4406C16.2285 34.4002 16.025 34.4845 15.8749 34.6345C15.7249 34.7845 15.6406 34.988 15.6406 35.2002C15.6406 35.4124 15.7249 35.6158 15.8749 35.7659C16.025 35.9159 16.2285 36.0002 16.4406 36.0002H39.5606C39.7728 36.0002 39.9763 35.9159 40.1263 35.7659C40.2763 35.6158 40.3606 35.4124 40.3606 35.2002C40.3606 34.988 40.2763 34.7845 40.1263 34.6345C39.9763 34.4845 39.7728 34.4002 39.5606 34.4002Z" fill="#282828"/>
</svg>
