<svg width="150" height="130" viewBox="0 0 150 130" fill="none" xmlns="http://www.w3.org/2000/svg">
<path fill-rule="evenodd" clip-rule="evenodd" d="M26.5664 64.8223C26.5664 37.81 48.2526 15.9122 75.0039 15.9122C91.0286 15.9122 105.247 23.7724 114.067 35.8935L122.602 21.5288C110.88 8.39563 93.9022 0.134766 75.0039 0.134766C39.6232 0.134766 10.9414 29.0963 10.9414 64.8223H26.5664ZM123.441 64.8225C123.441 91.8346 101.755 113.732 75.0039 113.732C58.9786 113.732 44.7598 105.872 35.9401 93.7495L27.4044 108.114C39.1262 121.248 56.105 129.51 75.0039 129.51C110.385 129.51 139.066 100.548 139.066 64.8225H150L131.25 33.2676L112.5 64.8225H123.441ZM37.5 64.8224L18.75 96.3773L0 64.8224H37.5Z" fill="#FF2E1F"/>
</svg>
