<svg width="730" height="730" viewBox="0 0 730 730" fill="none" xmlns="http://www.w3.org/2000/svg">
<circle cx="365" cy="365" r="365" fill="#7F0011"/>
<mask id="mask0_29_7287" style="mask-type:alpha" maskUnits="userSpaceOnUse" x="0" y="0" width="730" height="730">
<circle cx="365" cy="365" r="365" fill="#F8F8F7"/>
</mask>
<g mask="url(#mask0_29_7287)">
<path fill-rule="evenodd" clip-rule="evenodd" d="M207.189 292.919C337.206 292.919 442.605 186.333 442.605 54.8517C442.605 -76.6292 337.206 -183.216 207.189 -183.216C77.1721 -183.216 -28.2274 -76.6292 -28.2274 54.8517C-28.2274 186.333 77.1721 292.919 207.189 292.919ZM207.189 230.716C302.351 230.716 380.505 152.54 380.505 54.8517C380.505 -42.8367 302.351 -121.013 207.189 -121.013C112.027 -121.013 33.8728 -42.8367 33.8728 54.8517C33.8728 152.54 112.027 230.716 207.189 230.716ZM207.189 183.216C277.342 183.216 334.212 125.745 334.212 54.8517C334.212 -16.0418 277.342 -73.5124 207.189 -73.5124C137.036 -73.5124 80.1657 -16.0418 80.1657 54.8517C80.1657 125.745 137.036 183.216 207.189 183.216ZM207.189 121.013C242.528 121.013 272.112 91.9117 272.112 54.8517C272.112 17.7918 242.528 -11.3095 207.189 -11.3095C171.85 -11.3095 142.266 17.7918 142.266 54.8517C142.266 91.9117 171.85 121.013 207.189 121.013ZM834.401 465.391C834.401 596.872 729.002 703.458 598.985 703.458C468.968 703.458 363.569 596.872 363.569 465.391C363.569 333.91 468.968 227.323 598.985 227.323C729.002 227.323 834.401 333.91 834.401 465.391ZM772.301 465.391C772.301 563.079 694.147 641.255 598.985 641.255C503.823 641.255 425.669 563.079 425.669 465.391C425.669 367.702 503.823 289.526 598.985 289.526C694.147 289.526 772.301 367.702 772.301 465.391ZM726.008 465.391C726.008 536.284 669.138 593.755 598.985 593.755C528.832 593.755 471.962 536.284 471.962 465.391C471.962 394.497 528.832 337.027 598.985 337.027C669.138 337.027 726.008 394.497 726.008 465.391ZM663.908 465.391C663.908 502.451 634.324 531.552 598.985 531.552C563.646 531.552 534.062 502.451 534.062 465.391C534.062 428.331 563.646 399.229 598.985 399.229C634.324 399.229 663.908 428.331 663.908 465.391ZM310.501 619.201C310.501 750.682 205.102 857.269 75.0848 857.269C-54.9321 857.269 -160.332 750.682 -160.332 619.201C-160.332 487.72 -54.9321 381.134 75.0848 381.134C205.102 381.134 310.501 487.72 310.501 619.201ZM248.401 619.201C248.401 716.89 170.247 795.066 75.0848 795.066C-20.0775 795.066 -98.2313 716.89 -98.2313 619.201C-98.2313 521.513 -20.0775 443.337 75.0848 443.337C170.247 443.337 248.401 521.513 248.401 619.201ZM202.108 619.201C202.108 690.095 145.238 747.565 75.0848 747.565C4.93181 747.565 -51.9384 690.095 -51.9384 619.201C-51.9384 548.308 4.93181 490.837 75.0848 490.837C145.238 490.837 202.108 548.308 202.108 619.201ZM140.008 619.201C140.008 656.261 110.424 685.362 75.0848 685.362C39.7458 685.362 10.1618 656.261 10.1618 619.201C10.1618 582.141 39.7458 553.04 75.0848 553.04C110.424 553.04 140.008 582.141 140.008 619.201Z" fill="#CC000E"/>
</g>
</svg>
